<?xml version="1.0" encoding="utf-8"?>
<!-- Generator: Adobe Illustrator 18.0.0, SVG Export Plug-In . SVG Version: 6.00 Build 0)  -->
<!DOCTYPE svg PUBLIC "-//W3C//DTD SVG 1.1//EN" "http://www.w3.org/Graphics/SVG/1.1/DTD/svg11.dtd">
<svg version="1.1" id="Layer_1" xmlns="http://www.w3.org/2000/svg" xmlns:xlink="http://www.w3.org/1999/xlink" x="0px" y="0px"
	 viewBox="0 0 300 300" enable-background="new 0 0 300 300" xml:space="preserve">
<g>
	<g>
		<path d="M-1780.5,495.6c36.2,0,72.4,0,108.7,0c9.7,0,9.7-15,0-15c-36.2,0-72.4,0-108.7,0C-1790.1,480.6-1790.1,495.6-1780.5,495.6
			L-1780.5,495.6z"/>
	</g>
</g>
<line fill="none" stroke="#000000" stroke-width="15" stroke-miterlimit="10" x1="-1691.6" y1="337.1" x2="-1691.6" y2="488.1"/>
<line fill="none" stroke="#000000" stroke-width="15" stroke-miterlimit="10" x1="-1761.3" y1="337.1" x2="-1761.3" y2="488.1"/>
<g>
	<g>
		<path d="M-1691.6,344.6c8.2-0.2,16.4,0.3,24.5,1.1c13.2,1.4,28.7,4.3,40.5,11.5c10.4,6.3,14.9,17.8,8.9,28.9
			c-5.8,10.9-20.2,15.2-33,17.6c-12.5,2.3-27.4,2.7-40.9,1.4c-4.1-0.4-7.5,3.7-7.5,7.5c0,4.4,3.4,7.1,7.5,7.5
			c22.2,2.2,47.2,0.6,67.5-9.1c14.4-6.8,23.7-19.9,24-35.9c0.2-15.9-11.4-27.7-25-34.1c-20.1-9.5-44.5-12-66.5-11.4
			C-1701.3,329.9-1701.3,344.9-1691.6,344.6L-1691.6,344.6z"/>
	</g>
</g>
<g>
	<g>
		<path d="M-1812.6,344.6c40.3,0,80.7,0,121,0c9.7,0,9.7-15,0-15c-40.3,0-80.7,0-121,0C-1822.3,329.6-1822.3,344.6-1812.6,344.6
			L-1812.6,344.6z"/>
	</g>
</g>
<g>
	<g>
		<path d="M-1775.6,143.5c36.2,0,72.4,0,108.7,0c9.7,0,9.7-15,0-15c-36.2,0-72.4,0-108.7,0C-1785.3,128.5-1785.3,143.5-1775.6,143.5
			L-1775.6,143.5z"/>
	</g>
</g>
<line fill="none" stroke="#000000" stroke-width="15" stroke-miterlimit="10" x1="-1686.8" y1="-15" x2="-1686.8" y2="136"/>
<line fill="none" stroke="#000000" stroke-width="15" stroke-miterlimit="10" x1="-1756.5" y1="-15" x2="-1756.5" y2="136"/>
<g>
	<g>
		<path d="M-1686.8-7.5c8.2-0.2,16.4,0.3,24.5,1.1c13.2,1.4,28.7,4.3,40.5,11.5c10.4,6.3,14.9,17.8,8.9,28.9
			c-5.8,10.9-20.2,15.2-33,17.6c-12.5,2.3-27.4,2.7-40.9,1.4c-4.1-0.4-7.5,3.7-7.5,7.5c0,4.4,3.4,7.1,7.5,7.5
			c22.2,2.2,47.2,0.6,67.5-9.1c14.4-6.8,23.7-19.9,24-35.9c0.2-15.9-11.4-27.7-25-34.1c-20.1-9.5-44.5-12-66.5-11.4
			C-1696.4-22.2-1696.5-7.2-1686.8-7.5L-1686.8-7.5z"/>
	</g>
</g>
<g>
	<g>
		<path d="M-1807.8-7.5c40.3,0,80.7,0,121,0c9.7,0,9.7-15,0-15c-40.3,0-80.7,0-121,0C-1817.5-22.5-1817.5-7.5-1807.8-7.5
			L-1807.8-7.5z"/>
	</g>
</g>
<path d="M-789,134.2l-72-3.2c0,0-13.8-1.5-13.5,7.8s7,8.5,15.2,8.2s90.5-4,90.5-4l26.8-0.2c0,0,7.2,0,6.5-3.7
	c-0.8-3.8-9.2-4.3-9.2-4.3L-789,134.2z"/>
<path d="M-844.3,38.5l3,84.8c0,0-1,5.8,3.2,6s4.2-4,4.5-8.5s2.8-95.2,2.8-95.2l1.1-30.5c0,0,0.2-16.2-7.8-16s-7.5,5.7-7.8,7.8
	C-845.6-11.2-844.3,38.5-844.3,38.5z"/>
<path d="M-777.3,135.8V63.5l-5-77c0,0,0.2-8.3,8.2-7.5s7.5,5.5,8,8s-2.8,76.5-2.8,76.5l-0.5,72.2H-777.3z"/>
<path d="M-878.3-14.8l80.8-4.2c0,0,50.2-5.1,80.4,4.7C-700-8.7-693,4.6-693.8,12.3S-694.3,65.2-770,76c-10.6,0.9-7.5-0.4-6.2-8.7
	c1.3-8.3,9.3-8.3,9.3-8.3c22.9-5.4,45.8-5.1,58.1-24.5c23.1-38.5-18.9-49-55.9-46.8c-41.9,2.9-70.8,8.8-70.8,8.8s-33.2,4-37.8,4
	s-12.8,1.5-13.2-6S-878.3-14.8-878.3-14.8z"/>
<g>
	<path fill="#FFFFFF" d="M150,1.8C68.3,1.8,1.8,68.3,1.8,150S68.3,298.2,150,298.2S298.2,231.7,298.2,150S231.7,1.8,150,1.8z
		 M150,293.2C71,293.2,6.8,229,6.8,150S71,6.8,150,6.8S293.2,71,293.2,150S229,293.2,150,293.2z"/>
	<path fill="#9F7042" d="M217.9,80.7c-11.3-3.6-26.8-5.5-46-5.5c-0.8,0-1.7,0-2.5,0c-0.9-0.3-1.9-0.5-3.1-0.6
		c-0.4,0-0.7-0.1-1.1-0.1c-1.5,0-2.8,0.3-3.8,0.8c-9.7,0.3-16.5,1-16.5,1l-29.8,1.6c-0.3-0.5-0.7-0.9-1-1.3c-1.3-1.3-3-2.1-4.8-2.1
		l-0.2,0c-4.7,0.1-6.9,2.1-7.9,4.1l-28.8,1.5l-0.3,0c-3.2,0.7-9.2,3.7-8.8,10.4c0.3,4.9,3.6,7.4,9.8,7.4c0.8,0,1.6,0,2.3-0.1
		c0.6,0,1.2,0,1.7,0c2.5,0,14-1.3,23-2.3c0.2,11.5,0.6,27.8,0.8,34.5l1.8,67.8c0,3.1,1.2,8.5,5.7,8.7c0.2,0,0.3,0,0.5,0
		c5.6,0,5.9-5.5,6.1-8.9c0.2-4,2-76.3,2-79.3l0.9-25.4c7.6-1.3,21.3-3.4,39-5.1l3.9,60.5c-2.6,1.2-4.7,3.2-5.2,6.4
		c-0.6,3.6-0.1,6.2,1.5,8.1c1,1.1,2.3,1.9,4,2.4v48.8l-8.5-0.1l-64.6-2.9c-0.2,0-1-0.1-2-0.1c-3.2,0-7.5,0.6-10.1,3.3
		c-1.5,1.5-2.2,3.5-2.1,5.8c0.3,9.5,7.7,9.5,11.3,9.5c1.1,0,2.2,0,3.3-0.1l1.2,0c7.3-0.2,80.6-3.6,81.3-3.6l24-0.2
		c1.2,0,5.2-0.2,7-2.4c0.8-0.9,1.1-2.1,0.8-3.4c-0.9-4.7-8.6-5.4-10.2-5.4l-20-0.2l0.3-49c26.6-4.2,45.8-13.7,56.8-28.3
		c9.2-12.1,10.2-24.5,10.5-29.1c0-0.4,0.1-0.8,0.1-1.1c0.4-4.3-1.4-9.5-4.8-14.1C232.5,88.9,227.2,83.7,217.9,80.7z M175.3,86.4
		c2.6-0.1,5.2-0.2,7.8-0.2c22.2,0,38.5,5.5,43.7,14.7c3.6,6.3,2.3,14.5-3.6,24.5c-8.3,13.1-22.2,15.6-38.2,18.5
		c-3.9,0.7-7.9,1.5-11.9,2.4C173.9,129.1,175.2,96.6,175.3,86.4z"/>
</g>
</svg>
